<svg xmlns="http://www.w3.org/2000/svg" width="512" height="512" viewBox="0 0 512 512" version="1.1"><path d="" stroke="none" fill="#080404" fill-rule="evenodd"/><path d="M 243.500 7.497 C 228.116 10.392, 218.381 15.633, 206.371 27.489 C 198.493 35.265, 196.616 37.802, 192.681 46 C 182.796 66.592, 182.528 87.808, 191.905 107.500 C 199.310 123.052, 210.216 134.418, 224.477 141.448 C 244.767 151.449, 267.067 151.402, 288 141.313 C 296.066 137.425, 298.783 135.434, 306 128.117 C 315.425 118.562, 319.930 111.652, 323.584 101.146 C 332.814 74.604, 326.249 46.840, 306.051 27 C 297.419 18.522, 290.281 13.938, 280.335 10.487 C 267.427 6.007, 256.244 5.100, 243.500 7.497 M 246.347 19.033 C 222.791 23.250, 203.408 42.232, 198.388 66 C 195.577 79.312, 198.127 94.825, 205.119 106.942 L 208.260 112.384 210.118 108.762 C 212.968 103.206, 222.576 93.384, 229.100 89.358 L 234.962 85.739 231.874 81.840 C 227.525 76.350, 225 69.062, 225 62 C 225 40.360, 245.977 25.501, 266.762 32.418 C 273.769 34.749, 281.994 42.295, 285.087 49.230 C 289.864 59.939, 287.610 74.629, 279.980 82.515 L 277.063 85.530 281.914 88.257 C 289.036 92.260, 296.480 99.356, 300.657 106.124 C 304.716 112.699, 304.381 112.787, 308.956 103.948 C 313.444 95.276, 315.273 87.618, 315.273 77.500 C 315.273 61.064, 309.717 47.711, 298.004 35.993 C 286.763 24.747, 275.138 19.554, 259 18.569 C 254.875 18.317, 249.181 18.526, 246.347 19.033 M 247.347 45.002 C 245.062 46.163, 241.912 48.962, 240.347 51.221 C 237.913 54.733, 237.500 56.296, 237.500 62 C 237.500 67.657, 237.920 69.277, 240.264 72.659 C 244.541 78.832, 249.792 81.310, 257.547 80.816 C 262.829 80.480, 264.577 79.884, 267.713 77.349 C 273.275 72.853, 275.467 68.515, 275.467 62 C 275.467 55.485, 273.275 51.147, 267.713 46.651 C 262.620 42.535, 253.631 41.807, 247.347 45.002 M 244.286 95.396 C 233.979 98.752, 222.801 108.718, 219.423 117.563 L 217.667 122.160 220.584 124.586 C 224.717 128.026, 236.518 133.550, 243 135.080 C 250.741 136.907, 264.285 136.662, 271.500 134.565 C 277.918 132.699, 288.960 127.213, 292.904 123.930 L 295.309 121.929 292.904 116.751 C 289.627 109.693, 280.882 101.010, 273.500 97.485 C 268.436 95.067, 266.018 94.574, 258 94.322 C 251.886 94.130, 246.998 94.512, 244.286 95.396 M 108.624 111.098 C 92.698 113.230, 80.540 119.485, 67.890 132.055 C 60.744 139.156, 58.488 142.216, 54.617 150.055 C 48.552 162.341, 46.673 171.288, 47.281 185 C 48.126 204.083, 54.600 218.581, 68.500 232.524 C 81.685 245.750, 95.678 251.825, 115.025 252.722 C 124.628 253.167, 127.924 252.909, 134.788 251.173 C 155.927 245.827, 172.469 232.618, 181.963 213.500 C 187.218 202.919, 189.293 193.861, 189.294 181.500 C 189.299 138.704, 151.145 105.407, 108.624 111.098 M 384.809 111.078 C 357.998 114.685, 335.094 134.120, 326.175 160.833 C 323.939 167.528, 323.612 170.212, 323.595 182 C 323.576 194.219, 323.839 196.259, 326.361 203.500 C 335.113 228.629, 354.281 245.997, 379.356 251.518 C 390.292 253.926, 405.669 253.180, 416.278 249.727 C 451.900 238.131, 472.705 200.521, 463.465 164.427 C 454.555 129.620, 420.199 106.317, 384.809 111.078 M 102.500 124.829 C 91.658 128.089, 84.898 132.101, 76.942 139.998 C 64.203 152.643, 58.099 168.436, 59.311 185.613 C 59.961 194.822, 63.400 205.984, 67.494 212.170 L 70.115 216.132 73.899 210.316 C 78.341 203.488, 85.597 196.493, 92.326 192.549 L 97.123 189.738 94.618 187.119 C 93.240 185.679, 90.916 181.883, 89.454 178.685 C 87.147 173.643, 86.843 171.850, 87.163 165.185 C 87.599 156.087, 90.150 150.085, 96.118 144.118 C 109.751 130.484, 132.990 132.498, 143.829 148.252 C 151.985 160.106, 151.450 174.677, 142.424 186.511 C 140.937 188.460, 139.896 190.186, 140.111 190.347 C 140.325 190.507, 142.253 191.643, 144.395 192.871 C 151.280 196.817, 156.776 201.983, 161.598 209.040 C 164.187 212.829, 166.616 215.737, 166.997 215.502 C 168.510 214.567, 174.044 201.988, 175.580 195.996 C 177.841 187.169, 177.155 170.714, 174.186 162.568 C 168.042 145.712, 154.156 131.774, 137.723 125.966 C 128.953 122.867, 110.956 122.286, 102.500 124.829 M 378.500 124.870 C 353.521 132.060, 335.035 156.146, 335.035 181.500 C 335.035 191.249, 339.318 205.693, 344.616 213.809 C 346.121 216.114, 346.131 216.108, 349.882 210.309 C 354.191 203.648, 362.537 195.776, 368.448 192.797 C 370.676 191.673, 372.668 190.603, 372.874 190.419 C 373.080 190.235, 372.046 188.655, 370.577 186.909 C 363.437 178.424, 361.217 167.133, 364.568 156.357 C 367.150 148.055, 376.055 139.150, 384.357 136.568 C 399.749 131.781, 415.701 138.547, 422.720 152.839 C 425.010 157.502, 425.500 159.823, 425.500 166 C 425.500 174.412, 424.258 178.242, 419.192 185.452 C 417.046 188.506, 416.159 190.553, 416.878 190.793 C 417.519 191.006, 420.726 192.973, 424.005 195.162 C 430.493 199.494, 435.717 205.039, 439.755 211.878 C 442.196 216.011, 442.421 216.151, 443.787 214.378 C 446.233 211.205, 450.664 200.792, 452.017 195.040 C 453.781 187.533, 453.602 174.775, 451.625 167.124 C 446.368 146.786, 429.491 129.900, 409 124.479 C 401.512 122.498, 386.052 122.696, 378.500 124.870 M 110.058 149.185 C 103.474 152.617, 99.764 157.807, 99.221 164.344 C 97.763 181.931, 117.486 192.292, 130.564 180.809 C 135.341 176.615, 137.275 172.532, 137.326 166.526 C 137.450 152.183, 122.521 142.689, 110.058 149.185 M 386.459 148.880 C 375.505 153.855, 371.744 167.514, 378.640 177.274 C 389.617 192.811, 413.467 184.971, 413.467 165.826 C 413.467 161.119, 412.944 159.373, 410.470 155.812 C 404.931 147.842, 395.034 144.985, 386.459 148.880 M 240.135 182.750 C 238.492 184.128, 237.991 185.852, 237.775 190.866 L 237.500 197.231 232.148 199.224 L 226.796 201.216 222.610 197.108 C 216.010 190.630, 214.520 191.084, 202.302 203.302 C 195.363 210.241, 192 214.336, 192 215.845 C 192 217.120, 193.932 220.152, 196.483 222.879 L 200.967 227.672 198.830 232.729 L 196.693 237.787 190.451 238.184 C 180.914 238.791, 181 238.620, 181 257.087 C 181 275.385, 180.785 274.988, 190.684 275.017 L 196.500 275.034 198.700 280.717 L 200.899 286.400 196.450 291.157 C 194.002 293.774, 192 296.676, 192 297.607 C 192 300.358, 212.957 321, 215.751 321 C 217.168 321, 219.950 319.268, 222.688 316.681 L 227.259 312.362 232.613 314.431 L 237.966 316.500 237.983 322.559 C 238.010 332.289, 238.272 332.443, 255.389 332.823 C 269.820 333.144, 269.966 333.125, 272.472 330.619 C 274.594 328.497, 275 327.159, 275.002 322.295 L 275.004 316.500 280.344 314.404 L 285.684 312.308 290.284 316.654 C 292.846 319.075, 295.859 321, 297.087 321 C 298.536 321, 302.833 317.513, 309.645 310.810 C 321.982 298.670, 322.464 297.087, 315.871 290.369 L 311.742 286.161 314.055 280.581 L 316.368 275 322.529 275 C 331.752 275, 332 274.522, 332 256.743 C 332 238.772, 331.814 238.473, 320.172 237.764 C 316.044 237.512, 315.750 237.281, 313.795 232.750 L 311.745 228 315.873 223.522 C 322.249 216.605, 321.859 215.317, 309.733 203.232 C 297.777 191.316, 296.465 190.891, 290.500 197 C 288.352 199.200, 286.068 201, 285.424 201 C 284.781 201, 282.172 200.079, 279.627 198.953 C 275.011 196.911, 275 196.895, 275 191.887 C 275 186.933, 273.745 183.198, 271.600 181.765 C 270.995 181.361, 264.137 181.024, 256.361 181.015 C 244.342 181.002, 241.909 181.262, 240.135 182.750 M 250 198.309 C 250 201.229, 249.438 204.328, 248.750 205.196 C 248.063 206.064, 245.025 207.551, 242 208.500 C 238.975 209.449, 234.620 211.300, 232.322 212.613 C 226.599 215.883, 224.234 215.634, 219.789 211.294 L 215.995 207.589 211.531 211.969 L 207.068 216.350 211.034 220.653 C 213.215 223.019, 215 225.430, 215 226.011 C 215 226.591, 213.816 229.404, 212.368 232.261 C 210.920 235.118, 208.888 239.918, 207.853 242.928 C 206.817 245.938, 205.414 248.754, 204.735 249.185 C 204.056 249.616, 201.137 249.976, 198.250 249.985 L 193 250 193 256.500 L 193 263 198.345 263 C 204.455 263, 206.027 264.220, 208.011 270.500 C 208.706 272.700, 210.563 277.075, 212.137 280.221 C 213.712 283.368, 215 286.641, 215 287.494 C 215 288.347, 213.215 290.981, 211.034 293.347 L 207.068 297.650 211.491 301.992 L 215.915 306.333 220.435 302.167 C 225.561 297.442, 226.301 297.276, 230.590 299.892 C 232.289 300.928, 236.564 302.801, 240.090 304.054 C 249.064 307.243, 250 308.245, 250 314.655 L 250 320 256.500 320 L 263 320 263.015 314.750 C 263.024 311.863, 263.384 308.944, 263.815 308.265 C 264.246 307.586, 267.062 306.183, 270.072 305.147 C 273.082 304.112, 277.882 302.080, 280.739 300.632 C 283.596 299.184, 286.409 298, 286.989 298 C 287.570 298, 290.079 299.875, 292.565 302.167 L 297.085 306.333 301.544 301.956 L 306.004 297.580 302.002 293.502 C 297.349 288.761, 297.063 286.495, 300.387 280.678 C 301.700 278.380, 303.551 274.025, 304.500 271 C 305.449 267.975, 306.936 264.938, 307.804 264.250 C 308.672 263.563, 311.771 263, 314.691 263 L 320 263 320 256.500 L 320 250 314.057 250 C 309.049 250, 307.868 249.650, 306.557 247.777 C 305.701 246.555, 305 244.855, 305 243.999 C 305 243.144, 303.425 239.157, 301.500 235.140 C 299.575 231.124, 298 226.975, 298 225.921 C 298 224.868, 299.653 222.176, 301.673 219.940 L 305.346 215.875 301.235 211.765 L 297.125 207.654 293.060 211.327 C 290.824 213.347, 288.132 215, 287.079 215 C 286.025 215, 281.876 213.425, 277.860 211.500 C 273.843 209.575, 269.856 208, 269.001 208 C 268.145 208, 266.445 207.299, 265.223 206.443 C 263.350 205.132, 263 203.951, 263 198.943 L 263 193 256.500 193 L 250 193 250 198.309 M 106.487 199.740 C 98.846 202.472, 92.621 206.488, 88.146 211.572 C 83.446 216.911, 79.551 224.389, 80.366 226.510 C 80.676 227.318, 83.527 229.642, 86.703 231.673 C 99.429 239.814, 115.867 242.788, 130.339 239.568 C 138.264 237.805, 149.371 232.742, 154.347 228.626 L 157.194 226.270 154.401 220.567 C 150.634 212.874, 140.996 203.910, 133.317 200.957 C 125.314 197.880, 113.221 197.332, 106.487 199.740 M 384.746 199.022 C 374.029 201.730, 362.622 211.043, 358.085 220.788 C 355.791 225.715, 355.756 226.073, 357.390 227.879 C 362.390 233.403, 379.109 239.854, 390.586 240.687 C 403.934 241.656, 420.799 236.545, 430.500 228.593 L 433.500 226.133 430.521 220.317 C 426.604 212.669, 419.043 205.383, 411.227 201.726 C 406.219 199.382, 403.228 198.702, 396.710 198.424 C 392.194 198.231, 386.811 198.500, 384.746 199.022 M 246 217.603 C 234.130 220.779, 225.237 228.331, 219.626 240 C 216.735 246.012, 216.500 247.290, 216.500 257.021 C 216.500 266.859, 216.710 267.968, 219.734 274.110 C 223.681 282.128, 231.726 290.045, 239.747 293.804 C 244.902 296.220, 246.643 296.500, 256.500 296.500 C 266.519 296.500, 268.008 296.251, 273.192 293.705 C 298.157 281.445, 304.701 249.833, 286.372 230.035 C 275.107 217.867, 261.116 213.559, 246 217.603 M 251.267 229.070 C 242.442 230.779, 234.871 236.468, 230.769 244.471 C 227.905 250.059, 227.323 259.446, 229.445 265.833 C 231.729 272.712, 238.525 280.119, 245.177 282.981 C 249.536 284.856, 251.695 285.159, 258.073 284.790 C 269.493 284.129, 276.643 279.345, 282.245 268.616 C 285.493 262.398, 285.279 251.204, 281.785 244.500 C 275.738 232.900, 263.484 226.704, 251.267 229.070 M 107.531 280.049 C 84.350 283.675, 65.063 297.999, 54.412 319.500 C 48.531 331.372, 46.659 340.454, 47.301 354 C 48.189 372.774, 55.070 388.223, 68.446 401.479 C 81.095 414.014, 96.139 420.693, 114.037 421.720 C 168.770 424.861, 206.512 367.305, 181.739 318.478 C 170.230 295.792, 147.233 280.930, 121.500 279.546 C 117.100 279.309, 110.814 279.536, 107.531 280.049 M 383.870 280.007 C 368.252 282.479, 355.738 289.043, 343.844 301.001 C 336.614 308.270, 334.442 311.251, 330.655 319.102 C 323.276 334.397, 321.336 349, 324.586 364.792 C 335.170 416.220, 395.302 439.021, 437.368 407.557 C 448.971 398.878, 458.498 385.019, 462.831 370.513 C 465.675 360.993, 466.282 343.916, 464.094 335 C 457.655 308.765, 437.563 288.124, 412.025 281.506 C 404.686 279.605, 391.011 278.876, 383.870 280.007 M 110.500 292.026 C 68.480 297.706, 45.602 345.561, 67.784 381.376 L 70.185 385.253 72.978 380.376 C 76.317 374.546, 85.665 365.432, 92.256 361.581 L 97.012 358.803 94.458 355.768 C 89.692 350.103, 87.692 344.907, 87.236 337 C 86.658 326.956, 89.287 319.808, 96.048 313.048 C 102.808 306.287, 109.956 303.658, 120 304.236 C 132.069 304.932, 141.468 311.125, 146.707 321.834 C 151.966 332.582, 149.704 347.799, 141.595 356.218 L 138.977 358.937 142.239 360.585 C 150.891 364.957, 159.779 373.703, 165.547 383.521 C 166.443 385.046, 167.114 384.310, 170.211 378.401 C 175.035 369.201, 177.002 361.058, 176.988 350.356 C 176.974 339.717, 175.322 332.982, 170.290 323.042 C 159.557 301.840, 134.408 288.794, 110.500 292.026 M 386.500 292.030 C 362.100 295.268, 341.557 314.523, 336.388 339 C 333.588 352.258, 336.129 367.829, 343.047 379.816 L 346.115 385.131 349.899 379.316 C 354.315 372.528, 361.590 365.497, 368.210 361.617 L 372.891 358.874 369.543 354.488 C 359.968 341.944, 361.075 324.161, 372.118 313.118 C 378.077 307.158, 384.089 304.599, 393.149 304.164 C 399.801 303.845, 401.593 304.154, 406.897 306.534 C 413.902 309.678, 420.113 315.834, 423.331 322.824 C 424.983 326.414, 425.473 329.358, 425.439 335.500 C 425.393 343.951, 423.809 348.451, 418.285 355.816 C 416.917 357.639, 415.956 359.271, 416.149 359.443 C 416.342 359.614, 418.324 360.673, 420.552 361.797 C 426.599 364.844, 434.515 372.413, 438.633 379.084 C 440.641 382.338, 442.403 385, 442.547 385 C 443.353 385, 448.425 375.082, 450.115 370.202 C 456.384 352.099, 453.511 332.098, 442.378 316.339 C 429.971 298.776, 407.928 289.186, 386.500 292.030 M 110.500 317.400 C 106.546 319.143, 102.051 323.717, 100.360 327.718 C 97.224 335.137, 99.894 345.529, 106.163 350.311 C 109.522 352.873, 117.687 355.355, 120.191 354.575 C 120.911 354.350, 122.729 353.898, 124.232 353.569 C 127.522 352.849, 133.603 347.698, 135.408 344.102 C 140.254 334.450, 136.156 322.246, 126.616 317.913 C 121.826 315.738, 114.781 315.514, 110.500 317.400 M 386.481 317.394 C 382.512 319.123, 377.518 324.901, 375.989 329.533 C 373.210 337.955, 377.367 348.106, 385.241 352.123 C 390.341 354.725, 398.199 354.983, 402.625 352.694 C 408.648 349.579, 413.989 341.263, 413.989 335 C 413.989 331.616, 411.764 325.873, 409.336 322.987 C 404 316.647, 393.880 314.170, 386.481 317.394 M 241.500 366.499 C 216.318 372.125, 196.937 389.629, 188.355 414.500 C 185.908 421.591, 185.589 423.977, 185.547 435.500 C 185.493 450.296, 187.308 457.969, 193.823 470.500 C 198.557 479.604, 211.967 493.309, 221 498.275 C 257.140 518.142, 301.675 504.687, 319.552 468.500 C 325.617 456.223, 327.400 448.803, 327.363 436 C 327.300 414.245, 318.553 395.660, 301.564 381.185 C 294.858 375.471, 280.205 368.312, 271.500 366.495 C 262.913 364.704, 249.530 364.705, 241.500 366.499 M 105.909 368.839 C 96.115 372.073, 86.516 380.148, 82.043 388.915 C 79.294 394.305, 79.446 395.476, 83.276 398.397 C 91.539 404.700, 107.572 409.965, 118.500 409.965 C 129.655 409.965, 146.217 404.238, 154.409 397.547 L 157.318 395.171 154.561 389.535 C 150.893 382.038, 143.555 374.891, 135.406 370.879 C 129.726 368.083, 127.492 367.559, 120.127 367.298 C 113.762 367.073, 110.034 367.477, 105.909 368.839 M 382.487 368.741 C 370.855 372.898, 363.181 379.503, 358.223 389.625 L 355.500 395.185 358.500 397.626 C 366.718 404.313, 383.209 409.965, 394.500 409.965 C 405.843 409.965, 422.349 404.266, 430.447 397.554 L 433.394 395.111 430.947 389.856 C 427.436 382.315, 419.504 374.599, 411.332 370.775 C 402.684 366.728, 390.520 365.870, 382.487 368.741 M 241.347 378.985 C 221.142 384.282, 206.835 398.268, 199.393 420 C 197.973 424.146, 197.525 428.208, 197.574 436.500 C 197.646 448.658, 199.514 455.843, 205.202 465.830 L 208.238 471.160 211.277 465.839 C 214.969 459.374, 223.020 451.336, 229.618 447.526 C 232.303 445.976, 234.666 444.570, 234.869 444.401 C 235.072 444.233, 233.599 442.181, 231.596 439.841 C 222.328 429.014, 222.985 411.115, 233.069 399.658 C 244.164 387.054, 264.223 385.986, 277.583 397.289 C 279.279 398.723, 282.189 402.733, 284.051 406.199 C 287.079 411.837, 287.438 413.342, 287.459 420.500 C 287.486 429.497, 285.532 435.047, 280.194 441.126 L 277.100 444.650 281.645 446.858 C 287.528 449.717, 296.363 458.053, 300.787 464.920 C 304.090 470.046, 304.357 470.236, 305.719 468.420 C 313.733 457.740, 317.415 437.594, 314.034 422.933 C 309.168 401.829, 290.886 383.487, 269.754 378.504 C 261.331 376.518, 250.028 376.710, 241.347 378.985 M 251 402.131 C 240.108 405.362, 234.237 417.450, 238.548 427.768 C 244.434 441.857, 263.019 444.240, 271.857 432.039 C 277.280 424.553, 276.871 415.340, 270.809 408.436 C 265.483 402.369, 258.109 400.023, 251 402.131 M 248.407 453.031 C 238.149 455.064, 229.003 461.248, 223.035 470.185 C 217.646 478.256, 217.148 480.462, 220.141 483.017 C 223.894 486.220, 238.007 492.718, 243.799 493.910 C 251.321 495.457, 263.563 495.260, 270.540 493.478 C 277.847 491.613, 287.353 487.060, 291.883 483.256 L 295.265 480.415 292.463 474.692 C 284.732 458.903, 265.781 449.586, 248.407 453.031" stroke="none" fill="#040404" fill-rule="evenodd"/></svg>